<svg width="56" height="56" viewBox="0 0 56 56" fill="none" xmlns="http://www.w3.org/2000/svg">
<rect x="0.5" y="0.5" width="55" height="55" rx="27.5" stroke="white" stroke-opacity="0.4"/>
<path d="M19 35.7501V38.5001C19 38.7751 19.225 39.0001 19.5 39.0001H23.5C23.775 39.0001 24 38.7751 24 38.5001V35.7501C24 34.7851 23.215 34.0001 22.25 34.0001H20.75C19.785 34.0001 19 34.7851 19 35.7501ZM20 35.7501C20 35.3351 20.335 35.0001 20.75 35.0001H22.25C22.665 35.0001 23 35.3351 23 35.7501V38.0001H20V35.7501ZM23.25 31.7501C23.25 30.7851 22.465 30.0001 21.5 30.0001C20.535 30.0001 19.75 30.7851 19.75 31.7501C19.75 32.7151 20.535 33.5001 21.5 33.5001C22.465 33.5001 23.25 32.7151 23.25 31.7501ZM20.75 31.7501C20.75 31.3351 21.085 31.0001 21.5 31.0001C21.915 31.0001 22.25 31.3351 22.25 31.7501C22.25 32.1651 21.915 32.5001 21.5 32.5001C21.085 32.5001 20.75 32.1651 20.75 31.7501ZM13 30.2501V33.0001C13 33.2751 13.225 33.5001 13.5 33.5001H17.5C17.775 33.5001 18 33.2751 18 33.0001V30.2501C18 29.2851 17.215 28.5001 16.25 28.5001H14.75C13.785 28.5001 13 29.2851 13 30.2501ZM14 30.2501C14 29.8351 14.335 29.5001 14.75 29.5001H16.25C16.665 29.5001 17 29.8351 17 30.2501V32.5001H14V30.2501ZM13.75 26.2501C13.75 27.2151 14.535 28.0001 15.5 28.0001C16.465 28.0001 17.25 27.2151 17.25 26.2501C17.25 25.2851 16.465 24.5001 15.5 24.5001C14.535 24.5001 13.75 25.2851 13.75 26.2501ZM15.5 25.5001C15.915 25.5001 16.25 25.8351 16.25 26.2501C16.25 26.6651 15.915 27.0001 15.5 27.0001C15.085 27.0001 14.75 26.6651 14.75 26.2501C14.75 25.8351 15.085 25.5001 15.5 25.5001ZM32 35.7501V38.5001C32 38.7751 32.225 39.0001 32.5 39.0001H36.5C36.775 39.0001 37 38.7751 37 38.5001V35.7501C37 34.7851 36.215 34.0001 35.25 34.0001H33.75C32.785 34.0001 32 34.7851 32 35.7501ZM33 35.7501C33 35.3351 33.335 35.0001 33.75 35.0001H35.25C35.665 35.0001 36 35.3351 36 35.7501V38.0001H33V35.7501ZM36.25 31.7501C36.25 30.7851 35.465 30.0001 34.5 30.0001C33.535 30.0001 32.75 30.7851 32.75 31.7501C32.75 32.7151 33.535 33.5001 34.5 33.5001C35.465 33.5001 36.25 32.7151 36.25 31.7501ZM33.75 31.7501C33.75 31.3351 34.085 31.0001 34.5 31.0001C34.915 31.0001 35.25 31.3351 35.25 31.7501C35.25 32.1651 34.915 32.5001 34.5 32.5001C34.085 32.5001 33.75 32.1651 33.75 31.7501ZM43 30.2501C43 29.2851 42.215 28.5001 41.25 28.5001H39.75C38.785 28.5001 38 29.2851 38 30.2501V33.0001C38 33.2751 38.225 33.5001 38.5 33.5001H42.5C42.775 33.5001 43 33.2751 43 33.0001V30.2501ZM42 32.5001H39V30.2501C39 29.8351 39.335 29.5001 39.75 29.5001H41.25C41.665 29.5001 42 29.8351 42 30.2501V32.5001ZM40.5 24.5001C39.535 24.5001 38.75 25.2851 38.75 26.2501C38.75 27.2151 39.535 28.0001 40.5 28.0001C41.465 28.0001 42.25 27.2151 42.25 26.2501C42.25 25.2851 41.465 24.5001 40.5 24.5001ZM40.5 27.0001C40.085 27.0001 39.75 26.6651 39.75 26.2501C39.75 25.8351 40.085 25.5001 40.5 25.5001C40.915 25.5001 41.25 25.8351 41.25 26.2501C41.25 26.6651 40.915 27.0001 40.5 27.0001ZM25.5 40.2501V43.0001C25.5 43.2751 25.725 43.5001 26 43.5001H30C30.275 43.5001 30.5 43.2751 30.5 43.0001V40.2501C30.5 39.2851 29.715 38.5001 28.75 38.5001H27.25C26.285 38.5001 25.5 39.2851 25.5 40.2501ZM26.5 40.2501C26.5 39.8351 26.835 39.5001 27.25 39.5001H28.75C29.165 39.5001 29.5 39.8351 29.5 40.2501V42.5001H26.5V40.2501ZM29.75 36.2501C29.75 35.2851 28.965 34.5001 28 34.5001C27.035 34.5001 26.25 35.2851 26.25 36.2501C26.25 37.2151 27.035 38.0001 28 38.0001C28.965 38.0001 29.75 37.2151 29.75 36.2501ZM27.25 36.2501C27.25 35.8351 27.585 35.5001 28 35.5001C28.415 35.5001 28.75 35.8351 28.75 36.2501C28.75 36.6651 28.415 37.0001 28 37.0001C27.585 37.0001 27.25 36.6651 27.25 36.2501ZM18.42 23.0101L19.74 24.3501C19.74 24.3501 19.78 24.3851 19.8 24.4001L27.645 32.3501C27.74 32.4451 27.865 32.5001 28 32.5001C28.135 32.5001 28.26 32.4451 28.355 32.3501L36.26 24.3501L37.575 23.0101C39.94 20.6101 39.94 16.7051 37.575 14.3051C36.425 13.1401 34.895 12.4951 33.265 12.4951C31.64 12.4951 30.11 13.1351 28.955 14.3001L27.995 15.2751L27.035 14.3001C26.4741 13.7273 25.8042 13.2726 25.0649 12.9626C24.3256 12.6526 23.5317 12.4937 22.73 12.4951C21.1 12.4951 19.575 13.1401 18.42 14.3051C16.055 16.7051 16.055 20.6051 18.42 23.0051V23.0101ZM22.73 13.5001C24.085 13.5001 25.365 14.0351 26.325 15.0101L27.64 16.3451C27.735 16.4401 27.86 16.4951 27.995 16.4951C28.13 16.4951 28.255 16.4401 28.35 16.3451L29.665 15.0101C30.1331 14.5311 30.6923 14.1508 31.3097 13.8914C31.9272 13.6321 32.5903 13.499 33.26 13.5001C34.62 13.5001 35.895 14.0351 36.855 15.0101C38.84 17.0201 38.84 20.2951 36.855 22.3101L27.99 31.2851L20.45 23.6451C20.45 23.6451 20.41 23.6101 20.39 23.5951L19.12 22.3051C17.14 20.2951 17.14 17.0201 19.12 15.0051C20.08 14.0301 21.355 13.4951 22.715 13.4951L22.73 13.5001Z" fill="#E46027"/>
<path d="M23.5 20.9999H24V25.9999C24 26.2749 24.225 26.4999 24.5 26.4999H31.5C31.775 26.4999 32 26.2749 32 25.9999V20.9999H32.5C32.665 20.9999 32.815 20.9199 32.91 20.7899C33.005 20.6549 33.025 20.4849 32.97 20.3349L32.07 17.8349C32.0356 17.7379 31.9719 17.6541 31.8877 17.5949C31.8034 17.5358 31.7029 17.5044 31.6 17.5049H24.4C24.19 17.5049 24 17.6349 23.93 17.8349L23.03 20.3349C23.0021 20.4099 22.993 20.4905 23.0035 20.5698C23.0139 20.6492 23.0437 20.7247 23.09 20.7899C23.185 20.9249 23.335 20.9999 23.5 20.9999ZM27.25 25.4999V23.9999H28.75V25.4999H27.25ZM31 25.4999H29.75V23.4999C29.75 23.2249 29.525 22.9999 29.25 22.9999H26.75C26.475 22.9999 26.25 23.2249 26.25 23.4999V25.4999H25V20.9999H31V25.4999ZM27.5 19.9999H26.37L26.62 18.4999H27.5V19.9999ZM28.5 18.4999H29.38L29.63 19.9999H28.5V18.4999ZM31.79 19.9999H30.645L30.395 18.4999H31.25L31.79 19.9999ZM24.755 18.4999H25.61L25.36 19.9999H24.215L24.755 18.4999Z" fill="#E46027"/>
</svg>
