<svg width="56" height="56" viewBox="0 0 56 56" fill="none" xmlns="http://www.w3.org/2000/svg">
<rect x="0.5" y="0.5" width="55" height="55" rx="27.5" stroke="white" stroke-opacity="0.4"/>
<g clip-path="url(#clip0_8023_11732)">
<path d="M32.6312 22.1766C29.5191 17.5981 25.3626 15.1647 23.1859 16.6557C22.9462 16.8245 22.738 17.0339 22.5706 17.2746C22.5706 17.2922 17.5314 27.49 17.5314 27.49L14.7182 29.3959C14.2864 29.6891 13.9165 30.0644 13.6297 30.5006C13.343 30.9367 13.145 31.4251 13.047 31.9378C12.949 32.4505 12.953 32.9775 13.0588 33.4886C13.1645 33.9997 13.3699 34.485 13.6633 34.9168L13.7899 35.1032C14.3828 35.9669 15.2924 36.5621 16.3213 36.7596C17.3503 36.9571 18.4155 36.7409 19.2862 36.1581L23.8048 42.8148C24.4695 43.6341 25.7459 44.45 27.3213 43.49C27.6004 43.309 27.8385 43.0716 28.0202 42.793C28.2019 42.5143 28.3232 42.2008 28.3763 41.8724C28.4399 41.5458 28.4382 41.2098 28.3712 40.8839C28.3042 40.5579 28.1732 40.2485 27.9859 39.9735L24.0053 34.101C24.0053 34.101 33.4154 33.3519 33.4506 33.3379C33.7444 33.2764 34.0229 33.1568 34.2699 32.9862C35.3881 32.2267 35.789 30.6337 35.4022 28.4992C35.0541 26.5335 34.0659 24.3076 32.6312 22.1766ZM14.8132 34.4104L14.6866 34.224C14.4842 33.9261 14.3426 33.5911 14.2698 33.2383C14.197 32.8856 14.1945 32.5219 14.2624 32.1682C14.3304 31.8144 14.4674 31.4776 14.6657 31.1768C14.864 30.8761 15.1196 30.6175 15.418 30.4157L17.8479 28.7629L21.0549 33.4856L18.6251 35.1383C18.327 35.341 17.992 35.4829 17.6391 35.556C17.2861 35.6291 16.9223 35.6319 16.5683 35.5643C16.2143 35.4967 15.877 35.36 15.5759 35.162C15.2747 34.964 15.0156 34.7086 14.8132 34.4104ZM26.9732 40.6662C27.1654 40.9522 27.2363 41.3027 27.1704 41.6409C27.1044 41.9791 26.9071 42.2773 26.6215 42.4702C26.335 42.6626 25.9839 42.7336 25.6452 42.6677C25.3064 42.6018 25.0076 42.4043 24.8141 42.1185L20.3095 35.4829L22.1204 34.2522L22.5987 34.2135L26.9732 40.6662ZM22.2189 33.0073L18.7235 27.8592L22.0571 21.0618C22.3807 22.9713 23.3266 25.2394 24.8387 27.4654C26.3508 29.6913 28.109 31.4073 29.7618 32.413L22.2189 33.0073ZM32.5925 32.188C30.9116 32.079 28.1758 30.1836 25.8585 26.7691C23.5411 23.3546 22.7886 20.1229 23.3055 18.5159C23.3988 18.2143 23.5851 17.9498 23.8377 17.7604C24.0904 17.5709 24.3964 17.4661 24.7121 17.461C26.3789 17.461 29.2167 19.3669 31.6009 22.8799C32.9442 24.8561 33.9218 26.9238 34.189 28.7313C34.713 32.188 32.5925 32.188 32.5925 32.188Z" fill="#E46027"/>
<path d="M28.2356 22.3067C27.8049 22.2221 27.3616 22.2243 26.9317 22.313C26.5018 22.4018 26.0939 22.5754 25.7319 22.8236C25.6651 22.8698 25.6082 22.9287 25.5642 22.9969C25.5202 23.0651 25.4901 23.1413 25.4756 23.2211C25.461 23.301 25.4624 23.3829 25.4795 23.4622C25.4966 23.5415 25.5292 23.6167 25.5754 23.6834C25.6216 23.7501 25.6804 23.8071 25.7486 23.8511C25.8168 23.8951 25.893 23.9252 25.9729 23.9397C26.0527 23.9543 26.1346 23.9529 26.2139 23.9358C26.2933 23.9187 26.3684 23.8861 26.4352 23.8399C26.6644 23.6843 26.9221 23.5753 27.1935 23.5193C27.4649 23.4633 27.7447 23.4612 28.0168 23.5133C28.289 23.5654 28.5482 23.6706 28.7798 23.8228C29.0113 23.9751 29.2105 24.1715 29.3662 24.4008C29.5218 24.6301 29.6307 24.8877 29.6868 25.1591C29.7428 25.4305 29.7448 25.7103 29.6927 25.9824C29.6407 26.2546 29.5355 26.5138 29.3832 26.7454C29.2309 26.9769 29.0346 27.1761 28.8053 27.3318C28.6972 27.4064 28.6158 27.5137 28.573 27.638C28.5303 27.7622 28.5285 27.8969 28.5678 28.0222C28.6071 28.1476 28.6854 28.2571 28.7915 28.3347C28.8975 28.4123 29.0255 28.4539 29.1569 28.4535C29.2823 28.4559 29.4052 28.419 29.5086 28.348C30.0555 27.9775 30.4802 27.453 30.7288 26.8409C30.9774 26.2289 31.0387 25.5568 30.9051 24.9098C30.7714 24.2629 30.4487 23.6701 29.9778 23.2067C29.507 22.7433 28.9092 22.4301 28.2602 22.3067H28.2356ZM33.3908 17.897H33.4506C33.6028 17.897 33.7495 17.8405 33.8626 17.7385C33.9756 17.6366 34.0468 17.4964 34.0624 17.345L34.5371 12.7313C34.5479 12.6497 34.5423 12.5668 34.5205 12.4875C34.4987 12.4081 34.4612 12.334 34.4102 12.2693C34.3592 12.2047 34.2958 12.151 34.2237 12.1114C34.1516 12.0717 34.0723 12.0469 33.9904 12.0384C33.9086 12.03 33.8258 12.038 33.7471 12.0621C33.6684 12.0861 33.5954 12.1257 33.5322 12.1785C33.4691 12.2313 33.4172 12.2963 33.3796 12.3695C33.3421 12.4427 33.3195 12.5227 33.3134 12.6047L32.8422 17.2219C32.8255 17.3841 32.8739 17.5464 32.9767 17.673C33.0796 17.7996 33.2285 17.8802 33.3908 17.897ZM41.3451 16.9476C41.2547 16.8114 41.1141 16.7165 40.9541 16.6835C40.794 16.6506 40.6273 16.6823 40.4906 16.7718L36.204 19.585C36.0927 19.6584 36.0082 19.7661 35.9634 19.8918C35.9186 20.0174 35.9158 20.1542 35.9555 20.2815C35.9952 20.4089 36.0752 20.5199 36.1834 20.5978C36.2916 20.6758 36.4223 20.7165 36.5556 20.7137C36.68 20.7166 36.8024 20.6823 36.9073 20.6153L41.1938 17.8021C41.3268 17.7085 41.4174 17.5661 41.4457 17.406C41.474 17.2459 41.4379 17.0811 41.3451 16.9476ZM42.6567 24.4588L37.6703 23.5621C37.5095 23.5332 37.3437 23.5694 37.2095 23.6627C37.0753 23.756 36.9836 23.8988 36.9547 24.0597C36.9258 24.2206 36.962 24.3863 37.0553 24.5205C37.1486 24.6547 37.2914 24.7464 37.4523 24.7753L42.4352 25.672H42.5442C42.701 25.6766 42.8536 25.6211 42.9709 25.5169C43.0881 25.4127 43.1612 25.2677 43.1751 25.1115C43.189 24.9552 43.1428 24.7996 43.0458 24.6763C42.9487 24.553 42.8083 24.4715 42.6532 24.4483L42.6567 24.4588Z" fill="#E46027"/>
</g>
<defs>
<clipPath id="clip0_8023_11732">
<rect width="32" height="32" fill="white" transform="translate(12 12)"/>
</clipPath>
</defs>
</svg>
