<svg width="56" height="56" viewBox="0 0 56 56" fill="none" xmlns="http://www.w3.org/2000/svg">
<rect x="0.5" y="0.5" width="55" height="55" rx="27.5" stroke="white" stroke-opacity="0.4"/>
<path d="M42 37.9998H40V23.9998C40 23.4694 39.7893 22.9607 39.4142 22.5856C39.0391 22.2106 38.5304 21.9998 38 21.9998H30V15.9998C30.0002 15.6377 29.9021 15.2822 29.7161 14.9715C29.5301 14.6607 29.2633 14.4063 28.944 14.2353C28.6247 14.0644 28.265 13.9834 27.9032 14.0009C27.5415 14.0184 27.1913 14.1338 26.89 14.3348L16.89 20.9998C16.6157 21.1829 16.3909 21.4309 16.2356 21.7218C16.0803 22.0127 15.9994 22.3376 16 22.6673V37.9998H14C13.7348 37.9998 13.4804 38.1052 13.2929 38.2927C13.1054 38.4803 13 38.7346 13 38.9998C13 39.2651 13.1054 39.5194 13.2929 39.7069C13.4804 39.8945 13.7348 39.9998 14 39.9998H42C42.2652 39.9998 42.5196 39.8945 42.7071 39.7069C42.8946 39.5194 43 39.2651 43 38.9998C43 38.7346 42.8946 38.4803 42.7071 38.2927C42.5196 38.1052 42.2652 37.9998 42 37.9998ZM38 23.9998V37.9998H30V23.9998H38ZM18 22.6673L28 15.9998V37.9998H18V22.6673ZM26 25.9998V27.9998C26 28.2651 25.8946 28.5194 25.7071 28.7069C25.5196 28.8945 25.2652 28.9998 25 28.9998C24.7348 28.9998 24.4804 28.8945 24.2929 28.7069C24.1054 28.5194 24 28.2651 24 27.9998V25.9998C24 25.7346 24.1054 25.4803 24.2929 25.2927C24.4804 25.1052 24.7348 24.9998 25 24.9998C25.2652 24.9998 25.5196 25.1052 25.7071 25.2927C25.8946 25.4803 26 25.7346 26 25.9998ZM22 25.9998V27.9998C22 28.2651 21.8946 28.5194 21.7071 28.7069C21.5196 28.8945 21.2652 28.9998 21 28.9998C20.7348 28.9998 20.4804 28.8945 20.2929 28.7069C20.1054 28.5194 20 28.2651 20 27.9998V25.9998C20 25.7346 20.1054 25.4803 20.2929 25.2927C20.4804 25.1052 20.7348 24.9998 21 24.9998C21.2652 24.9998 21.5196 25.1052 21.7071 25.2927C21.8946 25.4803 22 25.7346 22 25.9998ZM22 32.9998V34.9998C22 35.2651 21.8946 35.5194 21.7071 35.7069C21.5196 35.8945 21.2652 35.9998 21 35.9998C20.7348 35.9998 20.4804 35.8945 20.2929 35.7069C20.1054 35.5194 20 35.2651 20 34.9998V32.9998C20 32.7346 20.1054 32.4803 20.2929 32.2927C20.4804 32.1052 20.7348 31.9998 21 31.9998C21.2652 31.9998 21.5196 32.1052 21.7071 32.2927C21.8946 32.4803 22 32.7346 22 32.9998ZM26 32.9998V34.9998C26 35.2651 25.8946 35.5194 25.7071 35.7069C25.5196 35.8945 25.2652 35.9998 25 35.9998C24.7348 35.9998 24.4804 35.8945 24.2929 35.7069C24.1054 35.5194 24 35.2651 24 34.9998V32.9998C24 32.7346 24.1054 32.4803 24.2929 32.2927C24.4804 32.1052 24.7348 31.9998 25 31.9998C25.2652 31.9998 25.5196 32.1052 25.7071 32.2927C25.8946 32.4803 26 32.7346 26 32.9998Z" fill="#E46027"/>
</svg>
