<svg width="32" height="32" viewBox="0 0 32 32" fill="none" xmlns="http://www.w3.org/2000/svg">
<g clip-path="url(#clip0_8003_10994)">
<path d="M20.6312 10.1767C17.5191 5.59823 13.3626 3.16482 11.1859 4.65581C10.9462 4.8246 10.738 5.03407 10.5706 5.27471C10.5706 5.29229 5.53143 15.4901 5.53143 15.4901L2.71824 17.396C2.28638 17.6892 1.9165 18.0646 1.62975 18.5007C1.34299 18.9369 1.14498 19.4252 1.04701 19.9379C0.949044 20.4506 0.953047 20.9776 1.05879 21.4887C1.16454 21.9999 1.36995 22.4852 1.6633 22.9169L1.78989 23.1033C2.38284 23.967 3.29242 24.5622 4.32134 24.7597C5.35025 24.9572 6.41554 24.7411 7.28615 24.1582L11.8048 30.8149C12.4695 31.6343 13.7459 32.4501 15.3213 31.4901C15.6004 31.3091 15.8385 31.0717 16.0202 30.7931C16.2019 30.5145 16.3232 30.2009 16.3763 29.8725C16.4399 29.5459 16.4382 29.2099 16.3712 28.884C16.3042 28.5581 16.1732 28.2486 15.9859 27.9736L12.0053 22.1011C12.0053 22.1011 21.4154 21.3521 21.4506 21.338C21.7444 21.2765 22.0229 21.157 22.2699 20.9864C23.3881 20.2268 23.789 18.6338 23.4022 16.4993C23.0541 14.5336 22.0659 12.3077 20.6312 10.1767ZM2.81319 22.4105L2.68659 22.2242C2.4842 21.9262 2.34256 21.5912 2.26977 21.2385C2.19699 20.8857 2.1945 20.522 2.26244 20.1683C2.33038 19.8145 2.46741 19.4777 2.6657 19.177C2.86399 18.8762 3.11965 18.6176 3.41802 18.4158L5.84791 16.7631L9.05495 21.4857L6.62506 23.1384C6.32702 23.3411 5.99197 23.483 5.63906 23.5561C5.28614 23.6292 4.92228 23.6321 4.56827 23.5645C4.21426 23.4969 3.87704 23.3602 3.5759 23.1622C3.27475 22.9642 3.01557 22.7087 2.81319 22.4105ZM14.9732 28.6664C15.1654 28.9523 15.2363 29.3029 15.1704 29.641C15.1044 29.9792 14.9071 30.2775 14.6215 30.4703C14.335 30.6627 13.9839 30.7337 13.6452 30.6678C13.3064 30.6019 13.0076 30.4044 12.8141 30.1187L8.30945 23.4831L10.1204 22.2523L10.5987 22.2136L14.9732 28.6664ZM10.2189 21.0075L6.72352 15.8593L10.0571 9.06196C10.3807 10.9714 11.3266 13.2395 12.8387 15.4655C14.3508 17.6914 16.109 19.4075 17.7618 20.4132L10.2189 21.0075ZM20.5925 20.1881C18.9116 20.0791 16.1758 18.1837 13.8585 14.7692C11.5411 11.3547 10.7886 8.12306 11.3055 6.51603C11.3988 6.21438 11.5851 5.94994 11.8377 5.76049C12.0904 5.57103 12.3964 5.46624 12.7121 5.46108C14.3789 5.46108 17.2167 7.36702 19.6009 10.88C20.9442 12.8562 21.9218 14.9239 22.189 16.7314C22.713 20.1881 20.5925 20.1881 20.5925 20.1881Z" fill="white"/>
<path d="M16.2356 10.3068C15.8049 10.2222 15.3616 10.2244 14.9317 10.3132C14.5018 10.4019 14.0939 10.5755 13.7319 10.8238C13.6651 10.8699 13.6082 10.9288 13.5642 10.997C13.5202 11.0652 13.4901 11.1414 13.4756 11.2212C13.461 11.3011 13.4624 11.383 13.4795 11.4623C13.4966 11.5416 13.5292 11.6168 13.5754 11.6835C13.6216 11.7503 13.6804 11.8072 13.7486 11.8512C13.8168 11.8952 13.893 11.9253 13.9729 11.9398C14.0527 11.9544 14.1346 11.953 14.2139 11.9359C14.2933 11.9188 14.3684 11.8862 14.4352 11.84C14.6644 11.6844 14.9221 11.5755 15.1935 11.5194C15.4649 11.4634 15.7447 11.4613 16.0168 11.5134C16.289 11.5655 16.5482 11.6707 16.7798 11.823C17.0113 11.9752 17.2105 12.1716 17.3662 12.4009C17.5218 12.6302 17.6307 12.8879 17.6868 13.1592C17.7428 13.4306 17.7448 13.7104 17.6927 13.9826C17.6407 14.2547 17.5355 14.514 17.3832 14.7455C17.2309 14.977 17.0346 15.1763 16.8053 15.3319C16.6972 15.4065 16.6158 15.5138 16.573 15.6381C16.5303 15.7623 16.5285 15.897 16.5678 16.0223C16.6071 16.1477 16.6854 16.2572 16.7915 16.3348C16.8975 16.4124 17.0255 16.4541 17.1569 16.4536C17.2823 16.456 17.4052 16.4191 17.5086 16.3482C18.0555 15.9776 18.4802 15.4531 18.7288 14.8411C18.9774 14.229 19.0387 13.5569 18.9051 12.91C18.7714 12.263 18.4487 11.6703 17.9778 11.2069C17.507 10.7435 16.9092 10.4302 16.2602 10.3068H16.2356ZM21.3908 5.89716H21.4506C21.6028 5.8971 21.7495 5.84063 21.8626 5.73867C21.9756 5.6367 22.0468 5.49648 22.0624 5.34508L22.5371 0.731449C22.5479 0.649868 22.5423 0.566948 22.5205 0.487597C22.4987 0.408245 22.4612 0.334073 22.4102 0.269469C22.3592 0.204865 22.2958 0.151142 22.2237 0.111477C22.1516 0.0718127 22.0723 0.0470129 21.9904 0.038545C21.9086 0.030077 21.8258 0.0381131 21.7471 0.0621777C21.6684 0.0862423 21.5954 0.125847 21.5322 0.178647C21.4691 0.231448 21.4172 0.296373 21.3796 0.36958C21.3421 0.442787 21.3195 0.52279 21.3134 0.604855L20.8422 5.222C20.8255 5.38426 20.8739 5.54653 20.9767 5.67313C21.0796 5.79973 21.2285 5.88031 21.3908 5.89716ZM29.3451 4.94771C29.2547 4.81151 29.1141 4.71658 28.9541 4.68364C28.794 4.6507 28.6273 4.68242 28.4906 4.77189L24.204 7.58508C24.0927 7.65857 24.0082 7.76624 23.9634 7.89187C23.9186 8.01751 23.9158 8.1543 23.9555 8.28164C23.9952 8.40899 24.0752 8.52 24.1834 8.59795C24.2916 8.67591 24.4223 8.71659 24.5556 8.71387C24.68 8.71673 24.8024 8.68245 24.9073 8.61541L29.1938 5.80222C29.3268 5.70865 29.4174 5.56626 29.4457 5.40615C29.474 5.24604 29.4379 5.08123 29.3451 4.94771ZM30.6567 12.4589L25.6703 11.5622C25.5095 11.5333 25.3437 11.5695 25.2095 11.6628C25.0753 11.7561 24.9836 11.8989 24.9547 12.0598C24.9258 12.2207 24.962 12.3865 25.0553 12.5207C25.1486 12.6549 25.2914 12.7465 25.4523 12.7754L30.4352 13.6721H30.5442C30.701 13.6767 30.8536 13.6212 30.9709 13.517C31.0881 13.4129 31.1612 13.2678 31.1751 13.1116C31.189 12.9553 31.1428 12.7997 31.0458 12.6764C30.9487 12.5531 30.8083 12.4716 30.6532 12.4484L30.6567 12.4589Z" fill="white"/>
</g>
<defs>
<clipPath id="clip0_8003_10994">
<rect width="32" height="32" fill="white"/>
</clipPath>
</defs>
</svg>
