<svg width="32" height="32" viewBox="0 0 32 32" fill="none" xmlns="http://www.w3.org/2000/svg">
<path d="M7 23.75V26.5C7 26.775 7.225 27 7.5 27H11.5C11.775 27 12 26.775 12 26.5V23.75C12 22.785 11.215 22 10.25 22H8.75C7.785 22 7 22.785 7 23.75ZM8 23.75C8 23.335 8.335 23 8.75 23H10.25C10.665 23 11 23.335 11 23.75V26H8V23.75ZM11.25 19.75C11.25 18.785 10.465 18 9.5 18C8.535 18 7.75 18.785 7.75 19.75C7.75 20.715 8.535 21.5 9.5 21.5C10.465 21.5 11.25 20.715 11.25 19.75ZM8.75 19.75C8.75 19.335 9.085 19 9.5 19C9.915 19 10.25 19.335 10.25 19.75C10.25 20.165 9.915 20.5 9.5 20.5C9.085 20.5 8.75 20.165 8.75 19.75ZM1 18.25V21C1 21.275 1.225 21.5 1.5 21.5H5.5C5.775 21.5 6 21.275 6 21V18.25C6 17.285 5.215 16.5 4.25 16.5H2.75C1.785 16.5 1 17.285 1 18.25ZM2 18.25C2 17.835 2.335 17.5 2.75 17.5H4.25C4.665 17.5 5 17.835 5 18.25V20.5H2V18.25ZM1.75 14.25C1.75 15.215 2.535 16 3.5 16C4.465 16 5.25 15.215 5.25 14.25C5.25 13.285 4.465 12.5 3.5 12.5C2.535 12.5 1.75 13.285 1.75 14.25ZM3.5 13.5C3.915 13.5 4.25 13.835 4.25 14.25C4.25 14.665 3.915 15 3.5 15C3.085 15 2.75 14.665 2.75 14.25C2.75 13.835 3.085 13.5 3.5 13.5ZM20 23.75V26.5C20 26.775 20.225 27 20.5 27H24.5C24.775 27 25 26.775 25 26.5V23.75C25 22.785 24.215 22 23.25 22H21.75C20.785 22 20 22.785 20 23.75ZM21 23.75C21 23.335 21.335 23 21.75 23H23.25C23.665 23 24 23.335 24 23.75V26H21V23.75ZM24.25 19.75C24.25 18.785 23.465 18 22.5 18C21.535 18 20.75 18.785 20.75 19.75C20.75 20.715 21.535 21.5 22.5 21.5C23.465 21.5 24.25 20.715 24.25 19.75ZM21.75 19.75C21.75 19.335 22.085 19 22.5 19C22.915 19 23.25 19.335 23.25 19.75C23.25 20.165 22.915 20.5 22.5 20.5C22.085 20.5 21.75 20.165 21.75 19.75ZM31 18.25C31 17.285 30.215 16.5 29.25 16.5H27.75C26.785 16.5 26 17.285 26 18.25V21C26 21.275 26.225 21.5 26.5 21.5H30.5C30.775 21.5 31 21.275 31 21V18.25ZM30 20.5H27V18.25C27 17.835 27.335 17.5 27.75 17.5H29.25C29.665 17.5 30 17.835 30 18.25V20.5ZM28.5 12.5C27.535 12.5 26.75 13.285 26.75 14.25C26.75 15.215 27.535 16 28.5 16C29.465 16 30.25 15.215 30.25 14.25C30.25 13.285 29.465 12.5 28.5 12.5ZM28.5 15C28.085 15 27.75 14.665 27.75 14.25C27.75 13.835 28.085 13.5 28.5 13.5C28.915 13.5 29.25 13.835 29.25 14.25C29.25 14.665 28.915 15 28.5 15ZM13.5 28.25V31C13.5 31.275 13.725 31.5 14 31.5H18C18.275 31.5 18.5 31.275 18.5 31V28.25C18.5 27.285 17.715 26.5 16.75 26.5H15.25C14.285 26.5 13.5 27.285 13.5 28.25ZM14.5 28.25C14.5 27.835 14.835 27.5 15.25 27.5H16.75C17.165 27.5 17.5 27.835 17.5 28.25V30.5H14.5V28.25ZM17.75 24.25C17.75 23.285 16.965 22.5 16 22.5C15.035 22.5 14.25 23.285 14.25 24.25C14.25 25.215 15.035 26 16 26C16.965 26 17.75 25.215 17.75 24.25ZM15.25 24.25C15.25 23.835 15.585 23.5 16 23.5C16.415 23.5 16.75 23.835 16.75 24.25C16.75 24.665 16.415 25 16 25C15.585 25 15.25 24.665 15.25 24.25ZM6.42 11.01L7.74 12.35C7.74 12.35 7.78 12.385 7.8 12.4L15.645 20.35C15.74 20.445 15.865 20.5 16 20.5C16.135 20.5 16.26 20.445 16.355 20.35L24.26 12.35L25.575 11.01C27.94 8.61 27.94 4.70501 25.575 2.30501C24.425 1.14001 22.895 0.495005 21.265 0.495005C19.64 0.495005 18.11 1.13501 16.955 2.30001L15.995 3.27501L15.035 2.30001C14.4741 1.72722 13.8042 1.27245 13.0649 0.962459C12.3256 0.652471 11.5317 0.493534 10.73 0.495005C9.1 0.495005 7.575 1.14001 6.42 2.30501C4.055 4.70501 4.055 8.60501 6.42 11.005V11.01ZM10.73 1.50001C12.085 1.50001 13.365 2.03501 14.325 3.01001L15.64 4.34501C15.735 4.44001 15.86 4.49501 15.995 4.49501C16.13 4.49501 16.255 4.44001 16.35 4.34501L17.665 3.01001C18.1331 2.53103 18.6923 2.15065 19.3097 1.8913C19.9272 1.63196 20.5903 1.49891 21.26 1.50001C22.62 1.50001 23.895 2.03501 24.855 3.01001C26.84 5.02001 26.84 8.295 24.855 10.31L15.99 19.285L8.45 11.645C8.45 11.645 8.41 11.61 8.39 11.595L7.12 10.305C5.14 8.295 5.14 5.02001 7.12 3.00501C8.08 2.03001 9.355 1.49501 10.715 1.49501L10.73 1.50001Z" fill="white"/>
<path d="M11.5 9.00001H12V14C12 14.275 12.225 14.5 12.5 14.5H19.5C19.775 14.5 20 14.275 20 14V9.00001H20.5C20.665 9.00001 20.815 8.92001 20.91 8.79001C21.005 8.65501 21.025 8.48501 20.97 8.33501L20.07 5.83501C20.0356 5.73805 19.9719 5.6542 19.8877 5.59507C19.8034 5.53595 19.7029 5.50447 19.6 5.50501H12.4C12.19 5.50501 12 5.63501 11.93 5.83501L11.03 8.33501C11.0021 8.40999 10.993 8.49066 11.0035 8.56997C11.0139 8.64928 11.0437 8.72483 11.09 8.79001C11.185 8.92501 11.335 9.00001 11.5 9.00001ZM15.25 13.5V12H16.75V13.5H15.25ZM19 13.5H17.75V11.5C17.75 11.225 17.525 11 17.25 11H14.75C14.475 11 14.25 11.225 14.25 11.5V13.5H13V9.00001H19V13.5ZM15.5 8.00001H14.37L14.62 6.50001H15.5V8.00001ZM16.5 6.50001H17.38L17.63 8.00001H16.5V6.50001ZM19.79 8.00001H18.645L18.395 6.50001H19.25L19.79 8.00001ZM12.755 6.50001H13.61L13.36 8.00001H12.215L12.755 6.50001Z" fill="white"/>
</svg>
