<svg width="69" height="64" viewBox="0 0 69 64" fill="none" xmlns="http://www.w3.org/2000/svg">
<path d="M44.1709 17.2583V17.8224C45.7139 18.3756 45.9529 19.6068 45.9475 22.8664L45.9095 47.0617C45.9095 49.8332 48.1533 52.0841 50.9296 52.0895H51.2556L51.2991 22.8773C51.2991 19.5742 51.5381 18.3485 53.1355 17.8115V17.2746L44.1709 17.2583Z" fill="white"/>
<path d="M25.9049 24.8461C24.6824 25.3017 23.5524 25.9797 22.5798 26.8529C21.6671 27.6827 20.9282 28.6861 20.4066 29.798C19.3146 32.3254 19.3635 35.1946 20.5479 37.6841C21.1672 38.9261 22.0746 40.0054 23.1829 40.8407C24.3293 41.7464 26.4428 43.0264 29.5287 44.6698C30.7186 45.2827 31.8758 45.9607 32.995 46.6875C33.8915 47.2515 34.7391 47.8915 35.5214 48.602C36.0593 49.063 36.4885 49.6325 36.7982 50.2725C37.0264 50.8041 37.1405 51.379 37.1405 51.9593C37.1405 52.621 36.9829 53.2719 36.6841 53.8576C36.369 54.4705 35.9452 55.0237 35.4345 55.4847C35.1737 55.718 34.8857 55.9295 34.5869 56.1139C41.5141 56.3471 43.0462 50.6685 40.6774 46.541C39.292 44.1275 36.1462 42.4732 33.7883 41.0359C32.9896 40.5532 32.8375 40.4447 31.9791 39.9295C31.1206 39.4142 30.3328 38.9478 29.5939 38.5085C28.8659 38.0692 28.2465 37.6949 27.7304 37.3912C27.2143 37.0766 26.8991 36.8868 26.7796 36.8163C25.9266 36.1817 25.2149 35.3844 24.677 34.4678C24.2424 33.7085 24.0142 32.8515 24.0033 31.9783C24.0033 31.2678 24.1609 30.5681 24.4597 29.9281C24.7694 29.2665 25.2203 28.6753 25.7691 28.1926C26.3884 27.6719 27.1002 27.2705 27.8662 27.0156C28.7627 26.7119 29.7026 26.56 30.6534 26.5763C32.3485 26.5546 34.0219 26.9505 35.5214 27.737C36.2114 28.0895 36.858 28.5288 37.4447 29.0332C37.988 29.5051 38.4553 30.0583 38.8302 30.6712C39.2431 31.3817 39.5691 32.1356 39.7972 32.9275C40.1069 33.958 40.3514 35.0102 40.5198 36.0732H41.6391L41.6554 24.1302H40.5361C40.5035 24.6726 40.3188 25.1987 39.9983 25.6434C39.7429 25.9037 39.3898 26.0393 39.0257 26.0176C38.6617 25.9905 38.3031 25.9254 37.95 25.817C37.4556 25.6759 36.8145 25.4807 36.0267 25.2475C33.9024 24.6183 31.9573 24.0922 29.9471 24.0868C28.654 24.0868 27.3229 24.2983 25.8994 24.8461H25.9049Z" fill="white"/>
<path d="M20.3306 6.67667L8.2474 6.6604V7.24616C8.69291 7.42515 9.07323 7.63667 9.36118 7.97837C9.83386 8.55328 10.0675 10.5112 10.062 12.5235L10.024 36.7187C10.024 38.5899 9.82842 40.6401 9.45354 41.1824C9.14929 41.6326 8.72008 41.8387 8.19307 42.0557V42.5763L16.8914 42.5872C16.7176 42.316 16.56 42.0394 16.4187 41.7465C16.0982 41.1065 15.8646 40.4285 15.7179 39.7289C15.4897 38.7418 15.3919 37.7329 15.4299 36.7187L15.4517 23.8374L15.4734 8.82447C16.9131 8.45566 18.3964 8.27667 19.885 8.29294C21.2542 8.27667 22.6124 8.47193 23.9218 8.86786C24.9813 9.18786 25.9701 9.70854 26.8339 10.3974C27.5837 10.9994 28.1813 11.7641 28.5888 12.6319C29.6374 14.899 29.4472 17.6706 27.5565 19.3899C30.8218 21.7926 32.9896 20.7838 33.8698 18.3594C34.8206 15.6204 34.2501 12.5885 32.3702 10.3811C31.8215 9.74108 31.1804 9.17701 30.4687 8.71057C29.6917 8.21701 28.855 7.83193 27.9695 7.56616C26.8828 7.24616 25.7745 7.01837 24.6498 6.89362C23.3024 6.74176 21.9496 6.66582 20.5968 6.66582C20.5044 6.66582 20.4175 6.66582 20.3306 6.66582V6.67667Z" fill="white"/>
<path d="M55.4988 48.2983C55.4988 50.5058 57.2809 52.2956 59.4921 52.2956C61.7034 52.2956 63.4963 50.5166 63.4963 48.3092C63.4963 46.1017 61.7142 44.3119 59.503 44.3119C57.2917 44.3119 55.4988 46.0909 55.4934 48.2983H55.4988Z" fill="#E35F27"/>
</svg>
