<svg width="44" height="44" viewBox="0 0 44 44" fill="none" xmlns="http://www.w3.org/2000/svg">
<g filter="url(#filter0_d_8275_398)">
<path d="M2 9C2 4.58172 5.58172 1 10 1H34C38.4183 1 42 4.58172 42 9V33C42 37.4183 38.4183 41 34 41H10C5.58172 41 2 37.4183 2 33V9Z" fill="white" shape-rendering="crispEdges"/>
<path d="M10 1.5H34C38.1421 1.5 41.5 4.85786 41.5 9V33C41.5 37.1421 38.1421 40.5 34 40.5H10C5.85786 40.5 2.5 37.1421 2.5 33V9C2.5 4.85786 5.85786 1.5 10 1.5Z" stroke="white" shape-rendering="crispEdges"/>
<path d="M18.6666 24.3333L22 21M22 21L25.3333 24.3333M22 21V28.5M28.6666 24.9524C29.6845 24.1117 30.3333 22.8399 30.3333 21.4167C30.3333 18.8854 28.2813 16.8333 25.75 16.8333C25.5679 16.8333 25.3975 16.7383 25.3051 16.5814C24.2183 14.7374 22.212 13.5 19.9166 13.5C16.4648 13.5 13.6666 16.2982 13.6666 19.75C13.6666 21.4718 14.3628 23.0309 15.4891 24.1613" stroke="#E35F27" stroke-width="1.66667" stroke-linecap="round" stroke-linejoin="round"/>
</g>
<defs>
<filter id="filter0_d_8275_398" x="0" y="0" width="44" height="44" filterUnits="userSpaceOnUse" color-interpolation-filters="sRGB">
<feFlood flood-opacity="0" result="BackgroundImageFix"/>
<feColorMatrix in="SourceAlpha" type="matrix" values="0 0 0 0 0 0 0 0 0 0 0 0 0 0 0 0 0 0 127 0" result="hardAlpha"/>
<feOffset dy="1"/>
<feGaussianBlur stdDeviation="1"/>
<feComposite in2="hardAlpha" operator="out"/>
<feColorMatrix type="matrix" values="0 0 0 0 0.0627451 0 0 0 0 0.0941176 0 0 0 0 0.156863 0 0 0 0.05 0"/>
<feBlend mode="normal" in2="BackgroundImageFix" result="effect1_dropShadow_8275_398"/>
<feBlend mode="normal" in="SourceGraphic" in2="effect1_dropShadow_8275_398" result="shape"/>
</filter>
</defs>
</svg>
